<svg width="316" height="82" viewBox="0 0 316 82" fill="none" xmlns="http://www.w3.org/2000/svg">
<path fill-rule="evenodd" clip-rule="evenodd" d="M307 2H9C5.13401 2 2 5.13401 2 9V73C2 76.866 5.13401 80 9 80H31V81H9C4.58172 81 1 77.4183 1 73V9C1 4.58172 4.58172 1 9 1H307C311.418 1 315 4.58172 315 9V73C315 77.4183 311.418 81 307 81H302V80H307C310.866 80 314 76.866 314 73V9C314 5.13401 310.866 2 307 2ZM251 80H223V81H251V80ZM175 80V81H141V80H175ZM103 80H62V81H103V80Z" fill="#C9E606"/>
<path d="M31 80H32V79H31V80ZM31 81V82H32V81H31ZM302 81H301V82H302V81ZM302 80V79H301V80H302ZM251 80H252V79H251V80ZM223 80V79H222V80H223ZM223 81H222V82H223V81ZM251 81V82H252V81H251ZM175 81V82H176V81H175ZM175 80H176V79H175V80ZM141 81H140V82H141V81ZM141 80V79H140V80H141ZM62 80V79H61V80H62ZM103 80H104V79H103V80ZM62 81H61V82H62V81ZM103 81V82H104V81H103ZM9 3H307V1H9V3ZM3 9C3 5.68629 5.68629 3 9 3V1C4.58172 1 1 4.58172 1 9H3ZM3 73V9H1V73H3ZM9 79C5.68629 79 3 76.3137 3 73H1C1 77.4183 4.58172 81 9 81V79ZM31 79H9V81H31V79ZM32 81V80H30V81H32ZM9 82H31V80H9V82ZM0 73C0 77.9706 4.02944 82 9 82V80C5.13401 80 2 76.866 2 73H0ZM0 9V73H2V9H0ZM9 0C4.02944 0 0 4.02944 0 9H2C2 5.13401 5.13401 2 9 2V0ZM307 0H9V2H307V0ZM316 9C316 4.02944 311.971 0 307 0V2C310.866 2 314 5.13401 314 9H316ZM316 73V9H314V73H316ZM307 82C311.971 82 316 77.9706 316 73H314C314 76.866 310.866 80 307 80V82ZM302 82H307V80H302V82ZM301 80V81H303V80H301ZM307 79H302V81H307V79ZM313 73C313 76.3137 310.314 79 307 79V81C311.418 81 315 77.4183 315 73H313ZM313 9V73H315V9H313ZM307 3C310.314 3 313 5.68629 313 9H315C315 4.58172 311.418 1 307 1V3ZM251 79H223V81H251V79ZM222 80V81H224V80H222ZM223 82H251V80H223V82ZM252 81V80H250V81H252ZM176 81V80H174V81H176ZM141 82H175V80H141V82ZM140 80V81H142V80H140ZM175 79H141V81H175V79ZM62 81H103V79H62V81ZM63 81V80H61V81H63ZM103 80H62V82H103V80ZM102 80V81H104V80H102Z" fill="#C9E606"/>
</svg>
