<svg width="500" height="500" viewBox="0 0 500 500" fill="none" xmlns="http://www.w3.org/2000/svg">
<path d="M500 251.02C500 344.898 448.98 424.49 373.469 469.388C336.735 489.796 293.878 502.041 248.98 502.041C112.245 500 0 387.755 0 251.02C0 244.898 0 238.775 0 232.653C10.2041 102.041 118.367 0 251.02 0C387.755 0 500 112.245 500 251.02Z" fill="url(#paint0_radial_48:18)"/>
<path d="M487.755 255.102C487.755 346.939 438.775 426.531 365.306 467.347C330.612 487.755 287.755 500 244.898 500C110.204 500 0 389.796 0 255.102C0 248.98 0 242.857 0 238.776C10.2041 112.245 114.286 10.2041 244.898 10.2041C379.592 10.2041 487.755 120.408 487.755 255.102Z" fill="url(#paint1_radial_48:18)"/>
<path d="M0 246.939C0 253.061 0 257.143 0 263.265C0 393.877 104.082 500 234.694 500C277.551 500 316.327 487.755 351.02 469.388C422.449 428.571 469.388 351.02 469.388 263.265C469.388 259.184 465.306 251.02 465.306 246.939C465.306 244.898 465.306 240.816 465.306 238.775C465.306 232.653 463.265 226.531 463.265 220.408C463.265 218.367 463.265 214.286 463.265 212.245C463.265 210.204 461.224 206.122 461.224 204.082C461.224 197.959 459.184 191.837 461.224 187.755C461.224 183.673 463.265 179.592 459.184 177.551C457.143 175.51 455.102 177.551 453.061 173.469C451.02 171.428 451.02 169.388 448.98 167.347C448.98 163.265 444.898 159.184 442.857 157.143C442.857 157.143 440.816 155.102 440.816 153.061C440.816 151.02 442.857 151.02 440.816 148.98C436.735 148.98 434.694 148.98 430.612 148.98C426.531 148.98 426.531 144.898 424.49 140.816C424.49 138.775 424.49 136.735 424.49 134.694C424.49 132.653 424.49 130.612 424.49 128.571C424.49 130.612 424.49 130.612 424.49 132.653C424.49 128.571 424.49 124.49 424.49 120.408C424.49 118.367 420.408 114.286 418.367 112.245C414.286 108.163 412.245 108.163 408.163 108.163C402.041 106.122 404.082 99.9999 402.041 95.9183C400 93.8775 400 93.8775 397.959 91.8367C393.878 87.755 391.837 83.6734 387.755 79.5918C381.633 71.4285 377.551 71.4285 369.388 71.4285C361.224 71.4285 351.02 67.3469 344.898 65.306C334.694 61.2244 324.49 53.0612 312.245 55.102C306.122 57.1428 297.959 61.2244 291.837 61.2244C285.714 61.2244 279.592 59.1836 275.51 55.102C265.306 48.9795 255.102 40.8163 240.816 38.7754C230.612 36.7346 216.327 36.7346 206.122 36.7346C193.878 38.7754 183.673 42.8571 171.429 46.9387C157.143 53.0611 146.939 63.2652 136.735 71.4285C126.531 77.5509 114.286 79.5918 104.082 85.7142C102.041 87.755 95.9184 91.8367 93.8775 95.9183C93.8775 97.9591 93.8775 99.9999 91.8367 102.041C89.7959 106.122 87.7551 108.163 85.7143 110.204C65.3061 132.653 30.6122 140.816 16.3265 167.347C14.2857 171.428 8.16327 195.918 6.12245 200C4.08163 208.163 24.4898 216.326 20.4082 224.49C20.4082 226.531 18.3673 228.571 16.3265 232.653C14.2857 234.694 14.2857 238.775 12.2449 240.816C10.2041 242.857 4.08163 242.857 0 246.939Z" fill="url(#paint2_radial_48:18)"/>
<path opacity="0.2" d="M446.938 328.571C444.897 318.367 438.775 310.204 432.653 300C428.571 293.877 422.449 287.755 418.367 281.632C414.285 277.551 412.244 271.428 408.163 267.347C404.081 263.265 395.918 255.102 400 248.979C402.04 244.898 406.122 242.857 410.204 240.816C414.285 236.734 416.326 234.694 418.367 230.612C422.449 226.53 422.448 222.449 424.489 218.367C426.53 212.245 426.53 210.204 426.53 204.081C424.489 200 426.53 195.918 424.489 191.837C422.448 187.755 418.367 185.714 414.285 183.673C408.163 179.592 402.04 177.551 397.959 171.428C395.918 167.347 393.877 163.265 389.795 163.265C385.714 161.224 381.632 163.265 377.551 161.224C371.428 161.224 361.224 159.183 357.142 155.102C351.02 146.939 357.142 134.694 346.938 128.571C340.816 124.49 332.653 122.449 326.53 122.449C314.285 122.449 304.081 126.53 291.836 128.571C281.632 130.612 271.428 136.734 269.387 148.979C269.387 153.061 269.387 155.102 271.428 159.183C271.428 163.265 273.469 167.347 275.51 171.428C283.673 187.755 302.04 193.877 318.367 202.041C330.612 208.163 334.693 222.449 328.571 234.694C326.53 242.857 318.367 246.939 312.244 253.061C308.163 257.143 304.081 261.224 302.04 265.306C297.959 269.388 295.918 273.469 293.877 277.551C287.755 285.714 285.714 295.918 277.551 306.122C271.428 314.286 265.306 322.449 255.102 326.53C246.938 330.612 236.734 328.571 228.571 330.612C220.408 332.653 212.244 332.653 204.081 332.653C200 332.653 195.918 330.612 189.795 330.612C185.714 330.612 179.591 330.612 175.51 328.571C165.306 326.53 155.102 322.449 146.938 318.367C140.816 314.286 136.734 310.204 134.693 304.081C132.653 297.959 134.693 287.755 136.734 281.632C142.857 271.428 157.142 265.306 169.387 267.347C181.632 269.388 191.836 277.551 202.04 283.673C212.244 289.796 222.448 289.796 230.612 283.673C234.693 281.632 236.734 277.551 238.775 273.469C240.816 271.428 242.857 269.388 244.897 267.347C253.061 261.224 261.224 255.102 267.346 246.939C273.469 240.816 279.591 232.653 279.591 222.449C279.591 214.285 275.51 208.163 271.428 202.041C267.346 195.918 263.265 189.796 259.183 183.673C257.142 177.551 251.02 173.469 242.857 171.428C236.734 169.388 228.571 169.388 224.489 173.469C222.448 175.51 220.408 175.51 220.408 177.551C220.408 179.592 218.367 179.592 218.367 181.632C216.326 183.673 212.244 187.755 210.204 191.837C202.04 187.755 197.959 191.837 193.877 193.877C187.755 200 179.591 202.041 171.428 200C165.306 197.959 157.142 195.918 153.061 189.796C146.938 183.673 146.938 169.388 146.938 161.224C144.897 148.979 144.897 138.775 140.816 126.53C138.775 122.449 136.734 118.367 132.653 114.285C128.571 112.245 124.489 112.245 122.448 114.285C116.326 114.285 110.204 118.367 104.081 122.449C97.9587 126.53 95.9179 132.653 91.8362 140.816C83.673 155.102 79.5913 171.428 71.4281 187.755C67.3464 195.918 65.3056 206.122 67.3464 216.326C69.3872 226.53 67.3464 246.939 53.0607 246.939C36.7342 246.939 34.6934 228.571 28.5709 216.326C28.5709 214.286 24.4893 206.122 20.4076 210.204V216.326C20.4076 218.367 18.3668 220.408 18.3668 224.49C16.326 230.612 10.2036 236.734 4.08111 234.694C2.0403 234.694 2.0403 234.694 2.0403 234.694C2.0403 240.816 2.0403 246.939 2.0403 253.061C-0.000519991 387.755 112.244 500 251.02 500C295.918 500 338.775 487.755 375.51 467.347C371.428 463.265 367.346 459.183 363.265 457.143C355.102 453.061 346.938 453.061 338.775 448.979C332.653 446.939 324.489 444.898 318.367 442.857C312.244 440.816 306.122 438.775 302.04 434.694C300 432.653 297.959 428.571 295.918 426.53C293.877 424.49 293.877 422.449 291.836 420.408C287.755 414.286 281.632 408.163 281.632 400C281.632 391.837 287.755 387.755 295.918 387.755C304.081 387.755 312.244 389.796 320.408 391.837C326.53 393.877 332.653 395.918 338.775 397.959C342.857 400 346.938 400 351.02 404.081C357.142 408.163 363.265 412.245 371.428 412.245C379.591 412.245 383.673 410.204 389.795 406.122C397.959 402.041 404.081 391.837 410.204 383.673C412.244 379.592 414.285 375.51 418.367 373.469C420.408 371.428 422.448 369.388 424.489 367.347C428.571 363.265 430.612 361.224 436.734 357.143C438.775 355.102 442.857 355.102 442.857 353.061C444.897 351.02 444.897 348.979 446.938 346.939C446.938 344.898 446.938 336.735 446.938 328.571ZM224.489 204.081C226.53 204.081 230.612 206.122 232.653 208.163C234.693 210.204 238.775 216.326 236.734 220.408C236.734 222.449 234.693 228.571 232.653 230.612C228.571 232.653 224.489 232.653 220.408 234.694C218.367 234.694 216.326 236.734 212.244 234.694C210.204 234.694 208.163 234.694 206.122 234.694C197.959 232.653 200 220.408 200 216.326H197.959C208.163 206.122 216.326 202.041 224.489 204.081ZM97.9587 269.388C93.877 269.388 91.8362 267.347 89.7954 265.306C87.7546 261.224 87.7546 257.143 87.7546 253.061C87.7546 244.898 89.7954 234.694 93.877 226.53C97.9587 218.367 102.04 210.204 108.163 202.041C102.04 206.122 108.163 197.959 114.285 195.918C118.367 193.877 122.448 191.837 126.53 193.877C136.734 195.918 146.938 206.122 148.979 214.285C153.061 220.408 151.02 228.571 148.979 236.734C151.02 234.694 155.102 230.612 159.183 230.612C165.306 230.612 169.387 236.734 169.387 240.816C169.387 246.939 165.306 251.02 159.183 251.02C155.102 251.02 151.02 251.02 148.979 246.939C146.938 244.898 146.938 240.816 148.979 236.734C140.816 244.898 130.612 253.061 122.448 261.224C114.285 267.347 106.122 271.428 97.9587 269.388ZM232.653 418.367C230.612 424.49 226.53 430.612 220.408 434.694C212.244 438.775 202.04 438.775 191.836 438.775C181.632 436.734 171.428 434.694 161.224 432.653C148.979 430.612 140.816 424.49 132.653 416.326C120.408 402.041 116.326 381.632 116.326 363.265C116.326 359.183 118.367 353.061 120.408 348.979C122.448 346.939 124.489 344.898 126.53 342.857C128.571 340.816 128.571 338.775 124.489 342.857C126.53 338.775 128.571 334.694 130.612 330.612C132.653 330.612 134.693 328.571 134.693 328.571C142.857 326.53 146.938 324.49 153.061 324.49C157.142 324.49 163.265 324.49 167.346 324.49C173.469 324.49 179.591 324.49 183.673 324.49C187.755 326.53 193.877 328.571 197.959 330.612C202.04 332.653 206.122 334.694 210.204 336.734C212.244 338.775 214.285 340.816 216.326 340.816C218.367 342.857 220.408 344.898 222.448 348.979C226.53 355.102 228.571 361.224 230.612 367.347C234.693 383.673 236.734 402.041 232.653 418.367ZM379.591 320.408C377.551 324.49 371.428 328.571 365.306 330.612C361.224 332.653 355.102 330.612 351.02 328.571C346.938 328.571 344.897 326.53 340.816 324.49C336.734 322.449 334.693 322.449 330.612 320.408C324.489 316.326 318.367 314.286 314.285 310.204C310.204 304.081 308.163 295.918 308.163 289.796C306.122 283.673 306.122 277.551 306.122 271.428C308.163 265.306 312.244 259.183 314.285 255.102C316.326 253.061 318.367 248.979 320.408 246.939C324.489 242.857 326.53 236.734 328.571 232.653C334.693 228.571 338.775 226.53 348.979 226.53C353.061 226.53 357.142 228.571 361.224 230.612C367.346 234.694 371.428 238.775 373.469 246.939C375.51 251.02 375.51 253.061 375.51 257.143C377.551 261.224 375.51 263.265 377.551 267.347C377.551 271.428 379.591 273.469 379.591 277.551C379.591 281.632 379.591 283.673 379.591 287.755C379.591 291.837 379.591 293.877 379.591 297.959C379.591 300 381.632 304.081 381.632 306.122C383.673 310.204 381.632 316.326 379.591 320.408Z" fill="#00104A"/>
<path opacity="0.2" d="M212.244 128.571C208.162 118.367 199.999 108.163 202.04 95.9181C202.04 89.7957 204.081 81.6324 212.244 79.5916C218.366 77.5508 226.53 81.6324 230.611 83.6732C232.652 85.7141 236.734 87.7549 238.774 89.7957C240.815 91.8365 242.856 95.9181 242.856 99.9998C244.897 108.163 251.019 124.49 240.815 130.612C230.611 132.653 220.407 130.612 212.244 128.571Z" fill="#00104A"/>
<path opacity="0.2" d="M183.673 79.5919C187.755 81.6327 191.837 83.6735 195.918 83.6735C195.918 81.6327 195.918 81.6327 197.959 79.5919C197.959 79.5919 197.959 77.5511 197.959 75.5103C197.959 73.4695 195.918 73.4695 193.878 73.4695C191.837 73.4695 191.837 73.4695 189.796 73.4695C189.796 73.4695 189.796 73.4695 187.755 73.4695C185.714 73.4695 183.673 77.5511 183.673 79.5919Z" fill="#00104A"/>
<path opacity="0.2" d="M332.653 87.7549C338.775 85.7141 351.02 77.5508 357.143 81.6325C363.265 83.6733 367.347 89.7957 371.428 93.8774C373.469 97.959 377.551 104.081 375.51 108.163C373.469 112.245 367.347 116.326 363.265 116.326C359.183 116.326 357.143 114.286 353.061 114.286C348.979 114.286 344.898 112.245 340.816 110.204C336.734 108.163 334.694 106.122 332.653 104.081C330.612 102.041 328.571 102.041 328.571 99.9998C326.53 97.959 328.571 93.8774 328.571 91.8366C330.612 91.8366 332.653 85.7141 332.653 87.7549Z" fill="#00104A"/>
<path opacity="0.2" d="M230.613 332.653C232.654 340.817 232.654 359.184 246.94 359.184C253.062 359.184 257.144 355.102 255.103 348.98C253.062 342.857 251.021 334.694 242.858 332.653C240.817 332.653 238.776 330.613 236.736 330.613C234.695 330.613 232.654 334.694 230.613 334.694V332.653Z" fill="#00104A"/>
<defs>
<radialGradient id="paint0_radial_48:18" cx="0" cy="0" r="1" gradientUnits="userSpaceOnUse" gradientTransform="translate(305.51 113.467) scale(290.51)">
<stop stop-color="#2BCCB7"/>
<stop offset="0.1508" stop-color="#28BEB1"/>
<stop offset="0.4366" stop-color="#2299A1"/>
<stop offset="0.8239" stop-color="#175D88"/>
<stop offset="1" stop-color="#12407B"/>
</radialGradient>
<radialGradient id="paint1_radial_48:18" cx="0" cy="0" r="1" gradientUnits="userSpaceOnUse" gradientTransform="translate(298.019 121.854) scale(283.401 284.211)">
<stop stop-color="#1E7699"/>
<stop offset="0.252" stop-color="#1A6E8B"/>
<stop offset="0.7271" stop-color="#0E5766"/>
<stop offset="1" stop-color="#07494E"/>
</radialGradient>
<radialGradient id="paint2_radial_48:18" cx="0" cy="0" r="1" gradientUnits="userSpaceOnUse" gradientTransform="translate(286.521 141.536) scale(267.366 270.764)">
<stop offset="0.2814" stop-color="#0E4C62"/>
<stop offset="0.5125" stop-color="#0D4761"/>
<stop offset="0.7794" stop-color="#09395F"/>
<stop offset="1" stop-color="#04285D"/>
</radialGradient>
</defs>
</svg>
