<svg width="500" height="500" viewBox="0 0 500 500" fill="none" xmlns="http://www.w3.org/2000/svg">
<path d="M500 250C500 342.723 449.531 424.883 373.239 467.136C336.854 488.263 294.601 500 250 500C111.502 500 0 388.498 0 250C0 244.131 0 238.263 1.17371 232.394C9.38967 102.113 117.371 0 250 0C388.498 0 500 111.502 500 250Z" fill="url(#paint0_radial_48:8)"/>
<path d="M488.263 255.869C488.263 347.418 438.967 426.057 365.023 468.31C329.812 488.263 288.732 500 244.131 500C109.155 500 0 390.845 0 255.869C0 250 0 244.132 1.17371 238.263C9.38967 111.503 115.023 10.5637 244.131 10.5637C379.108 10.5637 488.263 120.892 488.263 255.869Z" fill="url(#paint1_radial_48:8)"/>
<path d="M1.17371 246.479C0 251.174 0 257.042 0 262.911C0 394.366 104.46 500 234.742 500C276.995 500 316.901 488.263 350.939 468.31C421.362 427.23 469.484 350.939 469.484 261.737C469.484 257.042 465.962 250 465.962 245.305C465.962 242.958 465.962 239.437 465.962 237.089C465.962 231.221 464.789 225.352 464.789 219.484C464.789 215.963 464.789 213.615 464.789 210.094C464.789 207.747 463.615 205.399 463.615 201.878C463.615 196.009 461.268 190.141 462.441 185.446C463.615 181.925 464.789 178.404 461.268 176.056C458.92 174.883 457.746 174.883 455.399 171.362C454.225 169.014 453.052 166.667 450.704 165.493C448.357 161.972 443.662 159.624 442.488 156.103C442.488 154.93 440.141 153.756 440.141 152.582C440.141 151.409 441.315 150.235 441.315 147.887C437.793 146.714 434.272 147.887 431.925 147.887C428.404 146.714 427.23 143.193 427.23 139.671C427.23 137.324 427.23 136.15 428.404 133.803C428.404 131.455 428.404 130.282 428.404 127.934C428.404 129.108 428.404 130.282 428.404 131.455C428.404 127.934 429.577 122.066 428.404 119.718C427.23 117.371 423.709 113.85 422.535 111.502C419.014 107.981 416.667 107.981 411.972 106.808C407.277 105.634 407.277 99.7653 404.93 95.0705C403.756 92.7231 402.582 91.5493 401.408 90.3756C397.887 86.8545 394.366 82.1597 392.019 77.4648C383.803 70.4226 380.282 71.5963 370.892 70.4226C362.676 70.4226 353.286 66.9015 346.244 63.3803C335.681 58.6855 325.117 51.6432 313.38 53.9906C306.338 55.1644 300.469 59.8592 292.254 59.8592C285.211 59.8592 280.516 57.5118 275.822 53.9906C264.085 48.1221 253.521 39.9061 240.61 37.5587C230.047 35.2113 217.136 34.0376 205.399 36.385C192.488 38.7324 181.925 43.4273 170.188 46.9484C157.277 51.6432 146.714 62.2066 134.977 69.2489C125.587 76.2911 112.676 77.4648 103.286 84.5071C100.939 88.0282 96.2441 92.723 93.8967 96.2442C93.8967 98.5916 92.723 100.939 91.5493 102.113C90.3756 105.634 88.0282 107.981 85.6808 110.329C65.7277 132.629 31.6901 140.845 16.4319 166.667C14.0845 171.362 8.21596 194.836 7.04225 199.531C4.69484 208.92 24.6479 214.789 22.3005 224.178C21.1268 226.526 19.9531 228.873 18.7793 231.221C17.6056 233.568 16.4319 237.089 14.0845 238.263C10.5634 241.784 3.52113 242.958 1.17371 246.479Z" fill="url(#paint2_radial_48:8)"/>
<path opacity="0.2" d="M446.009 329.812C443.661 319.249 437.793 311.033 431.924 301.643C427.23 294.601 422.535 288.732 417.84 282.864C414.319 278.169 410.798 272.3 407.277 268.779C402.582 264.084 395.539 257.042 399.061 250C401.408 246.479 406.103 244.131 408.45 240.61C411.971 237.089 414.319 233.568 417.84 230.047C421.361 225.352 421.361 221.831 422.535 217.136C423.708 211.268 424.882 207.746 423.708 201.878C422.535 197.183 423.708 193.662 421.361 188.967C419.014 185.446 415.492 183.099 411.971 181.925C404.929 178.404 400.234 174.883 395.539 169.014C393.192 165.493 392.018 161.972 387.323 159.624C383.802 157.277 379.108 158.451 374.413 158.451C368.544 157.277 359.154 157.277 354.46 152.582C347.417 144.366 354.46 131.455 343.896 125.587C338.028 122.066 330.985 118.545 322.769 118.545C311.032 118.545 299.295 122.066 288.732 124.413C278.169 126.76 268.779 133.803 266.431 144.366C265.258 147.887 266.431 151.408 267.605 153.756C268.779 158.451 268.779 160.798 271.126 165.493C279.342 181.925 298.122 187.793 313.38 196.009C325.117 201.878 328.638 215.962 323.943 227.699C321.596 234.742 313.38 240.61 307.511 246.479C303.99 250 300.469 253.521 296.948 258.216C293.427 261.737 291.079 266.432 288.732 269.953C282.863 279.343 279.342 288.732 273.474 298.122C267.605 306.338 260.563 313.38 251.173 318.075C242.957 321.596 233.568 320.422 224.178 321.596C215.962 322.77 207.746 322.77 199.53 322.77C194.835 322.77 191.314 321.596 186.619 321.596C181.924 321.596 177.23 321.596 172.535 320.422C163.145 318.075 152.582 314.554 144.366 309.859C138.497 306.338 133.802 301.643 132.629 294.601C131.455 288.732 131.455 278.169 134.976 272.3C140.845 261.737 156.103 255.868 167.84 258.216C179.577 260.563 190.14 268.779 199.53 273.474C210.093 278.169 219.483 280.516 228.873 273.474C232.394 271.127 233.568 267.606 237.089 264.084C238.262 261.737 241.784 260.563 244.131 258.216C252.347 252.347 259.389 246.479 266.431 238.263C272.3 231.221 278.169 224.178 278.169 214.789C278.169 206.573 274.647 200.704 268.779 193.662C264.084 187.793 260.563 181.925 257.042 174.883C254.694 169.014 248.826 165.493 241.784 163.145C235.915 161.972 227.699 160.798 223.004 164.319C220.657 165.493 219.483 166.667 218.309 169.014C217.136 170.188 217.136 171.361 215.962 172.535C213.615 174.883 211.267 179.577 207.746 181.925C204.225 186.62 200.704 190.141 196.009 193.662C188.967 199.53 180.751 201.878 172.535 198.357C166.666 196.009 159.624 193.662 154.929 188.967C147.887 181.925 150.234 169.014 149.061 159.624C147.887 149.061 146.713 137.324 143.192 126.76C142.018 122.066 138.497 117.371 134.976 113.85C131.455 111.502 127.934 111.502 124.413 112.676C118.544 113.85 112.676 117.371 107.981 120.892C100.938 125.587 98.5911 131.455 95.0699 139.671C88.0277 154.929 82.1591 170.188 75.1169 186.62C71.5958 194.836 69.2483 204.225 70.4221 213.615C72.7695 224.178 71.5958 244.131 56.3375 244.131C39.9056 244.131 37.5582 225.352 31.6896 213.615C30.5159 212.441 26.9948 201.878 23.4737 206.573C22.3 207.746 23.4737 212.441 22.3 213.615C21.1263 215.962 21.1263 218.31 19.9526 220.657C18.7789 226.526 12.9103 232.394 5.86805 232.394C4.69434 232.394 3.52063 232.394 3.52063 232.394C3.52063 238.263 2.34692 244.131 2.34692 250C2.34692 388.498 113.849 500 252.347 500C296.948 500 339.201 488.263 375.586 467.136C372.065 463.615 367.37 460.094 362.676 457.746C355.633 454.225 346.244 453.052 339.201 449.53C332.159 447.183 325.117 446.009 319.248 443.662C313.38 441.314 307.511 440.141 302.816 436.62C300.469 434.272 299.295 430.751 296.948 428.404C295.774 426.056 294.6 423.709 293.427 422.535C288.732 416.667 282.863 410.798 282.863 402.582C282.863 395.54 289.906 389.671 295.774 389.671C303.99 389.671 312.206 392.019 320.422 394.366C326.291 395.54 332.159 399.061 338.028 400.235C342.723 401.408 347.417 403.756 350.938 406.103C356.807 409.624 363.849 413.145 370.892 413.145C379.108 413.145 383.802 411.972 389.671 408.451C399.061 403.756 403.755 394.366 409.624 386.15C411.971 382.629 414.319 377.934 417.84 374.413C420.187 372.066 422.535 370.892 423.708 368.544C427.23 365.023 430.751 361.502 435.446 359.155C437.793 357.981 440.14 356.807 442.488 355.634C443.661 354.46 444.835 350.939 446.009 349.765C446.009 343.897 447.183 335.681 446.009 329.812ZM224.178 203.052C227.699 203.052 231.22 205.399 232.394 207.746C234.741 210.094 237.089 217.136 237.089 220.657C237.089 223.005 235.915 227.699 233.568 230.047C230.046 232.394 224.178 232.394 220.657 233.568C218.309 233.568 215.962 234.742 213.615 233.568C212.441 233.568 208.92 233.568 207.746 232.394C200.704 230.047 201.877 218.31 201.877 213.615L199.53 212.441C206.572 206.573 214.788 201.878 224.178 203.052ZM97.4174 269.953C93.8962 269.953 90.3751 268.779 89.2014 265.258C86.854 261.737 86.854 257.042 86.854 252.347C86.854 244.131 89.2014 234.742 92.7225 226.526C96.2436 217.136 100.938 210.094 106.807 201.878C100.938 205.399 107.981 198.357 113.849 196.009C118.544 194.836 122.065 192.488 126.76 193.662C136.15 194.836 146.713 205.399 150.234 213.615C153.755 220.657 152.582 228.873 151.408 235.915C153.755 232.394 158.45 228.873 161.971 230.047C167.84 230.047 171.361 235.915 171.361 240.61C171.361 246.479 166.666 250 161.971 250C158.45 250 153.755 248.826 151.408 245.305C150.234 241.784 150.234 238.263 150.234 235.915L149.061 237.089C139.671 245.305 130.281 253.521 122.065 261.737C115.023 267.606 105.633 269.953 97.4174 269.953ZM232.394 417.84C230.046 423.709 226.525 430.751 220.657 434.272C212.441 438.967 201.877 438.967 192.488 437.793C181.924 436.62 172.535 434.272 163.145 431.925C151.408 429.577 142.018 423.709 133.802 415.493C122.065 401.408 117.37 380.282 117.37 362.676C117.37 357.981 118.544 352.113 122.065 348.591C124.413 346.244 125.586 345.07 127.934 342.723C129.107 341.549 130.281 339.202 125.586 341.549C127.934 336.854 130.281 333.333 132.629 328.638C133.802 327.465 136.15 327.465 137.323 326.291C142.018 325.117 146.713 323.944 151.408 322.77C156.103 321.596 160.798 321.596 166.666 321.596C172.535 321.596 178.403 321.596 184.272 322.77C188.967 323.944 193.661 326.291 198.356 328.638C203.051 330.986 207.746 332.16 211.267 334.507C213.615 335.681 214.788 338.028 217.136 339.202C219.483 341.549 221.831 343.897 223.004 346.244C226.525 352.113 228.873 357.981 230.046 365.023C234.741 382.629 237.089 401.408 232.394 417.84ZM380.281 320.422C376.76 325.117 372.065 328.638 366.197 329.812C361.502 330.986 355.633 329.812 350.938 328.638C347.417 327.465 345.07 326.291 341.549 325.117C338.028 323.944 335.68 322.77 332.159 321.596C326.291 318.075 320.422 315.728 315.727 311.033C312.206 305.164 311.032 296.948 308.685 291.08C307.511 285.211 306.338 279.343 307.511 273.474C309.859 267.606 313.38 261.737 316.901 257.042C319.248 253.521 321.596 251.174 323.943 248.826C327.464 244.131 329.812 239.437 333.333 233.568C338.028 230.047 343.896 226.526 353.286 226.526C357.981 226.526 361.502 227.699 365.023 230.047C370.892 234.742 375.586 239.437 377.934 246.479C379.108 250 380.281 253.521 380.281 257.042C381.455 260.563 381.455 264.084 381.455 267.606C381.455 271.127 382.629 274.648 382.629 276.995C382.629 280.516 382.629 284.037 381.455 287.559C381.455 291.08 381.455 294.601 381.455 296.948C381.455 299.296 382.629 301.643 382.629 305.164C383.802 308.685 382.629 315.728 380.281 320.422Z" fill="#190078"/>
<path opacity="0.2" d="M212.442 127.934C207.747 117.37 200.705 106.807 201.878 93.896C201.878 86.8538 205.399 78.6378 212.442 77.4641C218.31 76.2904 225.352 79.8115 231.221 82.1589C233.568 83.3326 237.09 85.6801 239.437 88.0275C241.784 90.3749 242.958 93.896 244.132 97.4172C246.479 105.633 251.174 122.065 241.784 127.934C230.047 133.802 219.484 131.455 212.442 127.934Z" fill="#190078"/>
<path opacity="0.2" d="M184.272 79.8118C187.793 82.1592 192.488 83.3329 196.009 83.3329C196.009 82.1592 197.182 80.9855 197.182 79.8118C197.182 78.6381 197.182 76.2907 197.182 76.2907C197.182 73.9432 194.835 73.9432 193.661 73.9432C192.488 73.9432 191.314 73.9432 190.14 73.9432C188.967 73.9432 188.966 72.7695 187.793 72.7695C185.445 72.7695 183.098 77.4644 184.272 79.8118Z" fill="#190078"/>
<path opacity="0.2" d="M332.16 88.0279C338.028 85.6805 349.765 77.4645 356.807 80.9856C362.676 83.3331 367.371 89.2016 370.892 93.8964C374.413 97.4176 376.76 104.46 375.587 109.155C373.239 113.849 367.371 117.371 362.676 117.371C359.155 117.371 355.634 116.197 353.286 115.023C349.765 113.849 345.07 113.849 341.549 111.502C338.028 110.328 335.681 107.981 333.333 105.634C332.16 104.46 329.812 103.286 328.638 102.112C326.291 99.765 327.465 96.2439 328.638 93.8964C329.812 91.549 333.333 85.6805 332.16 88.0279Z" fill="#190078"/>
<path opacity="0.2" d="M230.047 332.159C232.394 341.549 232.394 359.155 245.305 357.981C252.347 357.981 254.695 353.286 253.521 347.417C252.347 340.375 248.826 333.333 241.784 330.985C240.61 330.985 237.089 329.812 235.916 329.812C233.568 329.812 231.221 333.333 228.873 334.507V332.159H230.047Z" fill="#190078"/>
<defs>
<radialGradient id="paint0_radial_48:8" cx="0" cy="0" r="1" gradientUnits="userSpaceOnUse" gradientTransform="translate(305.262 113.374) scale(290.272)">
<stop stop-color="#C0D6FA"/>
<stop offset="0.1678" stop-color="#B5C8F1"/>
<stop offset="0.4856" stop-color="#98A3D8"/>
<stop offset="0.9166" stop-color="#6A67B1"/>
<stop offset="1" stop-color="#605BA9"/>
</radialGradient>
<radialGradient id="paint1_radial_48:8" cx="0" cy="0" r="1" gradientUnits="userSpaceOnUse" gradientTransform="translate(297.778 121.753) scale(283.17 283.979)">
<stop stop-color="#9095C7"/>
<stop offset="0.1957" stop-color="#8289BD"/>
<stop offset="0.5662" stop-color="#5D68A1"/>
<stop offset="1" stop-color="#2A3B7C"/>
</radialGradient>
<radialGradient id="paint2_radial_48:8" cx="0" cy="0" r="1" gradientUnits="userSpaceOnUse" gradientTransform="translate(286.287 141.422) scale(267.148 270.543)">
<stop offset="0.2814" stop-color="#4A5190"/>
<stop offset="0.4564" stop-color="#474C90"/>
<stop offset="0.6588" stop-color="#3D3E8E"/>
<stop offset="0.8742" stop-color="#2C278C"/>
<stop offset="1" stop-color="#20168B"/>
</radialGradient>
</defs>
</svg>
